<?xml version="1.0" standalone="no"?>
<!DOCTYPE svg PUBLIC "-//W3C//DTD SVG 20010904//EN"
 "http://www.w3.org/TR/2001/REC-SVG-20010904/DTD/svg10.dtd">
<svg version="1.0" xmlns="http://www.w3.org/2000/svg"
 width="81.000000pt" height="83.000000pt" viewBox="0 0 81.000000 83.000000"
 preserveAspectRatio="xMidYMid meet">

<g transform="translate(0.000000,83.000000) scale(0.100000,-0.100000)"
fill="currentColor" stroke="none">
<path d="M380 693 c-67 -10 -72 -13 -59 -29 10 -13 27 -14 93 -9 45 4 83 8 85
10 2 2 1 11 -2 20 -6 15 -54 18 -117 8z"/>
<path d="M313 585 c-56 -24 -41 -39 32 -32 80 8 83 -1 22 -81 -44 -58 -72
-112 -59 -112 4 0 30 27 57 59 28 33 53 60 58 60 14 2 7 -75 -13 -126 -27 -72
-41 -172 -34 -238 4 -30 9 -53 12 -51 2 3 11 56 18 119 10 84 20 127 40 166
27 55 27 53 8 174 -7 41 -8 40 64 37 38 -1 43 1 40 17 -3 16 -15 18 -108 20
-74 2 -115 -2 -137 -12z"/>
</g>
</svg>
