<svg xmlns="http://www.w3.org/2000/svg" version="1.1" xmlns:xlink="http://www.w3.org/1999/xlink" xmlns:svgjs="http://svgjs.com/svgjs" width="100%" height="100%" viewBox="0 0 1000 600"><rect width="1000" height="600" x="0" y="0" fill="#141a46"/><g><circle r="166.66666666666666" cx="326.23598734537757" cy="348.4581990899543" fill="#ec8b5e" transform="matrix(0.7833588269201566,0,0,0.7833588269201568,0,27.032222879756006)"/><path d="M280.2955698746099 423.45819970470103L264.97656213535464 419.4041455958309Q283.65179499752696 385.9083542700842 311.398804677089 348.8237281594359L311.398804677089 348.8237281594359Q300.86490998436904 334.00316969586146 288.6695177060466 314.3642682340398Q276.47412542772406 294.75859672393005 266.9038993346536 277.0470324614072L266.9038993346536 277.0470324614072L283.4191853355426 273.45819767650573Q300.6323003223847 307.41920832622117 323.59419695541146 341.18083926566436L323.59419695541146 341.18083926566436L330.0740375392613 341.18083926566436Q356.1595496332208 304.7940421409692 372.1763863584291 273.45819767650573L372.1763863584291 273.45819767650573L387.4953940976843 276.8144227994228Q369.3186105111928 311.0080431111226 342.2694298175838 347.62744989780214L342.2694298175838 347.62744989780214Q353.7669931099532 363.6442866230104 366.0620752434118 383.150268277984Q378.3903873285825 402.65624993295756 387.2627844357 419.4041455958309L387.2627844357 419.4041455958309L371.445327420764 423.45819970470103Q356.3921592952052 393.8170827775521 329.84142787727694 355.2703387915737L329.84142787727694 355.2703387915737L323.59419695541146 355.2703387915737Q309.0062481538214 375.37445957736423 298.97080273678216 391.05899678545194Q288.9021273680309 406.71030404182767 280.2955698746099 423.45819970470103L280.2955698746099 423.45819970470103Z " fill="#141a46" transform="matrix(0.7833588269201566,0,0,0.7833588269201568,0,27.032222879756006)"/><path d="M576.2359806843065 421.28476618808764L576.2359806843065 273.4581966434193L591.4165422254238 273.4581966434193L591.4165422254238 342.57322022379236L664.1093633496284 342.57322022379236L664.1093633496284 273.4581966434193L679.2899248907457 273.4581966434193L679.2899248907457 421.28476618808764L664.1093633496284 421.28476618808764L664.1093633496284 356.7506609582279L591.4165422254238 356.7506609582279L591.4165422254238 421.28476618808764L576.2359806843065 421.28476618808764ZM757.2992862903637 423.4581946025648Q733.9265714946788 423.4581946025648 723.0928667825159 408.4113825023384Q712.2591620703528 393.36457040211207 712.2591620703528 366.14655918081365L712.2591620703528 366.14655918081365Q712.2591620703528 337.75824035171996 723.8284887074159 321.74174480503456Q735.3978153444788 305.72524925834915 762.8164507271134 305.72524925834915L762.8164507271134 305.72524925834915Q785.9551040012394 305.72524925834915 796.8891207940704 321.2401844016936Q807.8565749471244 336.7885569052609 807.8565749471244 364.2406296481184L807.8565749471244 364.2406296481184Q807.8565749471244 392.394886955653 796.2872483100615 407.9098220989975Q784.7513590332213 423.4581946025648 757.2992862903637 423.4581946025648L757.2992862903637 423.4581946025648ZM761.3786442375362 410.6851229974837Q775.8235838537536 410.6851229974837 785.9551040012394 405.63608160385223L785.9551040012394 405.63608160385223Q793.411635330907 392.394886955653 793.411635330907 367.1162426272727L793.411635330907 367.1162426272727Q793.411635330907 341.6035367773333 785.8213545603484 330.16795958116137Q778.2310737897898 318.7323823849893 758.737092779941 318.7323823849893L758.737092779941 318.7323823849893Q743.5565312388236 318.7323823849893 734.1940703764607 323.78142377862076L734.1940703764607 323.78142377862076Q730.8168969939653 330.03421014027043 728.7772180203791 340.50010388998345Q726.7041016865702 350.9994349999192 726.7041016865702 363.5050077232184L726.7041016865702 363.5050077232184Q726.7041016865702 380.3574372754719 729.8472135475064 390.58926950362587Q732.9903254084426 400.82110173177983 740.5471688187785 405.76983104474317Q748.137449589337 410.6851229974837 761.3786442375362 410.6851229974837L761.3786442375362 410.6851229974837ZM840.3576890836133 421.28476618808764L840.3576890836133 308.6008622375035L852.3951387637943 308.6008622375035L853.8329452533716 324.98516874663886L855.5048132645078 324.98516874663886Q874.2966097096795 306.6949327048082 895.4958960908872 306.6949327048082L895.4958960908872 306.6949327048082Q908.7370907390865 306.6949327048082 915.5917495847451 310.90804009287154Q922.4464084304037 315.121147480935 924.1182764415399 324.98516874663886L924.1182764415399 324.98516874663886L925.8235818128991 324.98516874663886Q944.1138178547297 306.6949327048082 966.0152888006147 306.6949327048082L966.0152888006147 306.6949327048082Q981.4299118632911 306.6949327048082 988.6523816713999 312.47959602333964Q995.8748514795085 318.2308219816484 995.8748514795085 333.1773220012066L995.8748514795085 333.1773220012066L995.8748514795085 421.28476618808764L981.1958503417321 421.28476618808764L981.1958503417321 322.57767881060266Q973.2377586087235 319.9361273530074 963.6077988645785 319.9361273530074L963.6077988645785 319.9361273530074Q952.7740941524156 319.9361273530074 942.7763234458208 323.9151732195117Q932.8119900994487 327.8607817257933 925.3220214095583 335.35075041568376L925.3220214095583 335.35075041568376L925.3220214095583 421.28476618808764L910.8770817933408 421.28476618808764L910.8770817933408 322.57767881060266Q902.952427420555 319.9361273530074 893.3224676764102 319.9361273530074L893.3224676764102 319.9361273530074Q882.2547014426881 319.9361273530074 872.2569307360933 324.01548530017993Q862.2591600294983 328.12828060757505 854.8026286998305 335.5848119372428L854.8026286998305 335.5848119372428L854.8026286998305 421.28476618808764L840.3576890836133 421.28476618808764ZM1076.0576412936034 423.4581946025648Q1027.4062821695384 423.4581946025648 1027.4062821695384 365.67843613769554L1027.4062821695384 365.67843613769554Q1027.4062821695384 337.992301873279 1039.8115428121696 322.3436172890436Q1052.2168034548004 306.6949327048082 1076.0576412936034 306.6949327048082L1076.0576412936034 306.6949327048082Q1095.7856838250113 306.6949327048082 1106.3853270156155 318.49832086343025Q1116.9849702062193 330.2682716618295 1116.9849702062193 351.23349652147823L1116.9849702062193 351.23349652147823Q1116.9849702062193 353.64098645751443 1116.4834098028782 358.92408937270505L1116.4834098028782 358.92408937270505L1104.2118986011383 371.1956005744452L1041.6171602641966 370.7274775313271Q1042.085283307315 390.7230189445168 1050.6452475243323 400.6873522908889Q1059.20521174135 410.6851229974837 1076.7598258582807 410.6851229974837L1076.7598258582807 410.6851229974837Q1087.3594690488844 410.6851229974837 1094.8160003785524 408.4113825023384Q1102.27253170822 406.10420464697035 1110.2306234412285 401.28922477489795L1110.2306234412285 401.28922477489795L1115.0456033133014 412.6244898904018Q1106.1512654940561 417.9075928055924 1097.3572397554794 420.6828937040786Q1088.5632140169027 423.4581946025648 1076.0576412936034 423.4581946025648L1076.0576412936034 423.4581946025648ZM1041.3830987426377 359.8937728191641L1102.038470186661 358.92408937270505Q1103.4762766762383 353.1394260541736 1103.4762766762383 347.3882000958649L1103.4762766762383 347.3882000958649Q1103.4762766762383 334.3810669692247 1096.2538068681297 326.92453563955695Q1089.031337060021 319.4345669496665 1075.0879578471445 319.4345669496665L1075.0879578471445 319.4345669496665Q1057.2658448484322 319.4345669496665 1049.8093135187642 329.33202557559315Q1042.3527821890966 339.1960468412971 1041.3830987426377 359.8937728191641L1041.3830987426377 359.8937728191641Z " fill="#ec8b5e" transform="matrix(0.7833588269201566,0,0,0.7833588269201568,0,27.032222879756006)"/></g></svg>